<svg xmlns="http://www.w3.org/2000/svg" width="2160.905" height="889.824" viewBox="0 0 2160.905 889.824">
  <g id="blob-scene-haikei" transform="translate(1 40.609)">
    <g id="Group_4" data-name="Group 4">
      <g id="Group_1" data-name="Group 1" transform="translate(2159.905 838.057) rotate(180)">
        <path id="Path_33" data-name="Path 33" d="M0,888.824c49.149-59.43,98.3-118.861,139.634-174.64s74.606-108.111,117.454-148.272c43.1-40.364,96.03-68.558,110.4-141.173s-9.578-189.65,45.872-219.467,190.3,27.586,270.446,3.651S789.157,79.717,847.884,33.268C906.611-13.384,998.608-1.011,1090.6,11.159V888.824Z" transform="translate(0 -11.157)" fill="#6c4bfe"/>
      </g>
      <g id="Group_2" data-name="Group 2" transform="translate(1069.309 43.864) rotate(90)">
        <path id="Path_34" data-name="Path 34" d="M878.565,0c-59.492,69.753-118.983,139.507-156.14,200.85-36.954,61.591-51.979,114.524-49.136,194.172,2.64,79.4,22.741,185.267-.2,258.978-23.147,73.464-89.339,114.772-151.47,142.723s-120.2,42.3-171.774,88.058c-51.776,45.513-97.054,122.44-154.312,158.553S69.034,1074.747,0,1070.3V0Z" transform="translate(-84.473 -3)" fill="#6c4bfe"/>
      </g>
    </g>
  </g>
</svg>
