<svg xmlns="http://www.w3.org/2000/svg" width="2160.905" height="512.973" viewBox="0 0 2160.905 512.973">
  <g id="Group_22" data-name="Group 22" transform="translate(2164.905 427.797) rotate(180)">
    <g id="blob-scene-haikei" transform="translate(4 -85)">
      <g id="Group_4" data-name="Group 4" transform="translate(0 0)">
        <g id="Group_1" data-name="Group 1" transform="translate(2160.905 513.824) rotate(180)">
          <path id="Path_33" data-name="Path 33" d="M0,511.8c49.149-34.221,98.3-68.442,139.634-100.56s74.606-62.252,117.454-85.377c43.1-23.242,96.03-39.477,110.4-81.289s-9.578-109.2,45.872-126.372,190.3,15.884,270.446,2.1S789.157,45.9,847.884,19.156C906.611-7.706,998.608-.582,1090.6,6.426V511.8Z" transform="translate(0 1.028)" fill="#db4bfe"/>
        </g>
        <g id="Group_2" data-name="Group 2" transform="translate(1073.309 -0.176) rotate(90)">
          <path id="Path_34" data-name="Path 34" d="M506,0c-34.263,69.753-68.527,139.507-89.927,200.85-21.283,61.591-29.937,114.524-28.3,194.172,1.52,79.4,13.1,185.267-.117,258.978-13.331,73.464-51.454,114.772-87.237,142.723s-69.229,42.3-98.931,88.058c-29.82,45.513-55.9,122.44-88.875,158.553S39.76,1074.747,0,1070.3V0Z" fill="#db4bfe"/>
        </g>
      </g>
    </g>
  </g>
</svg>
