<svg xmlns="http://www.w3.org/2000/svg" width="1160.843" height="1167.969" viewBox="0 0 1160.843 1167.969">
  <g id="blob-haikei_3_" data-name="blob-haikei (3)" transform="matrix(-0.682, 0.731, -0.731, -0.682, 1073.2, 339.744)">
    <g id="Group_45" data-name="Group 45" transform="translate(66.673 -182.011)">
      <path id="Path_153" data-name="Path 153" d="M501.883-41.078c80.9,86.626,156.244,159.442,173.366,246.427,17.123,87.164-23.758,188.5-104.662,233.334-81.118,44.837-202.047,33.18-338.385,45.734C96.077,497.152-55.244,534.277-136.362,489.44c-80.9-44.837-91.392-171.638-72.557-282.656C-190.084,95.946-141.5.711-60.595-85.915s194.556-165,294.723-153.7C334.081-228.5,420.978-127.7,501.883-41.078" transform="translate(216.954 240.707)" fill="#6c4bfe"/>
    </g>
  </g>
</svg>
