<svg id="Group_20" data-name="Group 20" xmlns="http://www.w3.org/2000/svg" width="884.252" height="660.122" viewBox="0 0 884.252 660.122">
  <path id="Path_35" data-name="Path 35" d="M388.939,658.109H148.491c-26.068,0-47.276-25.193-47.276-56.161V56.16C101.215,25.193,122.423,0,148.491,0H388.94c26.067,0,47.275,25.193,47.275,56.16V601.949c0,30.967-21.208,56.161-47.275,56.161Z" transform="translate(154.02)" fill="#3f3d56"/>
  <path id="Path_36" data-name="Path 36" d="M436.215,169a2,2,0,0,0-2,2v64a2,2,0,0,0,4,0V171A2,2,0,0,0,436.215,169Z" transform="translate(262.235 36.053)" fill="#3f3d56"/>
  <path id="Path_37" data-name="Path 37" d="M431.715,55.448v547.2c0,27.024-17.66,49.13-39.99,50.845h-.01c-.33.024-.66.048-1,.06-.59.036-1.18.048-1.78.048,0,0-2.2-.191-6.22-.548-4.06-.357-9.97-.893-17.34-1.6q-3.315-.3-7-.667c-4.9-.476-10.28-1-16.05-1.6-2.3-.226-4.68-.476-7.11-.727-12.42-1.274-26.33-2.763-41-4.454q-3.72-.411-7.5-.858c-.66-.083-1.33-.155-2-.238-10.46-1.227-21.21-2.549-32-3.954l-2-.25c-18.59-2.442-37.25-5.1-54.71-7.956-13.43-2.192-26.15-4.5-37.57-6.9q-5.58-1.179-10.72-2.37c-.67-.155-1.34-.31-2-.476-24.17-5.765-40-11.982-40-18.366V55.448C105.715,27.3,124.865,4.5,148.5,4.5h25.54c4.08,0,7.36,3.787,7.71,8.635.03.322.06.643.11.965.74,4.871,4.49,8.266,8.65,8.266h156.42c4.16,0,7.91-3.394,8.65-8.266.05-.322.08-.643.11-.965.35-4.847,3.63-8.635,7.71-8.635h25.54c23.63,0,42.78,22.808,42.78,50.952Z" transform="translate(154.484)" fill="#fff"/>
  <path id="Path_38" data-name="Path 38" d="M229.9,465c.15.67.28,1.33.41,2h-72.09a10.52,10.52,0,0,0-9.99,7.26c-.27-.44-.55-.88-.82-1.32v-.01c.08-.7.16-1.4.25-2.1A140.79,140.79,0,0,1,156,437.77a10.682,10.682,0,0,0,9.99-17.41l-.36-2.97.37-.66a28.689,28.689,0,0,1,52.48,6.8c3.78,13.71,8.48,27.55,11.42,41.47Z" transform="translate(103.969 104.109)" fill="#fafafa"/>
  <path id="Path_39" data-name="Path 39" d="M423.995,423.161l-.18.8a85.828,85.828,0,0,0-11.49,4.773q-3.21,1.632-6.33,3.537c-7.16,4.427-10.06,15.185-6.47,24.039a15.693,15.693,0,0,0,8.98,9.213l.28.1.6.21a175.758,175.758,0,0,1-31.52,46.892c-18.15,70.5-65.28,70.127-112.81,41.389l-.03-.012q-5.49,18.549-12.31,36.393c-.66,1.719-1.32,3.425-2,5.132V578.292a15.448,15.448,0,0,0-.33-3.227c.4-1.1.78-2.2,1.16-3.314a501.323,501.323,0,0,0,24.41-111.541q2.3-22.537,2.55-45.272.2-18.6-.94-37.16c-4.16-67.122-21.13-132.069-49.53-189.508-15.19-13.541-26.66-32.523-32.86-54.373a104.2,104.2,0,0,1-3.93-24.41c1.81.594,10.44-33.277,9.26-35.614,3.06-4.415,7.89-6.1,11.17-10.35,16.3-21.2,35.08-14.122,41.87,19.167,20.04,16.682,18,38.866,2.7,58.132-9.73,12.255-12.75,30.408-21.55,43.776.63,1.311,1.3,2.6,1.93,3.908a480.341,480.341,0,0,1,28.73,75.853,212.228,212.228,0,0,1,16.87-80.737c10.64-23.087,28.03-41.216,43.65-60.185,11.56-14.246,30.28-14.208,41.8.087,5.53,6.863,8.63,16.162,8.63,25.845l-.02.94q-3.21,1.632-6.33,3.537c-7.16,4.427-10.05,15.2-6.47,24.039a15.659,15.659,0,0,0,8.98,9.213l.28.1a210.421,210.421,0,0,1-6.45,25.87c8.88,85.362-31.51,109.674-84.94,102.736-1.26.569-2.48,1.138-3.73,1.657a537.243,537.243,0,0,1,7.71,112.827,508.931,508.931,0,0,1-6.99,66.405l.17-.767c6.36-23.978,19.21-44.505,36.39-58.12,25.49-19.872,59-23.434,85.84-38.421,8.29-4.9,18.21-.557,22.17,9.695a24.993,24.993,0,0,1,1.08,14.085Z" transform="translate(198.385)" fill="#fafafa"/>
  <rect id="Rectangle_7" data-name="Rectangle 7" width="39" height="5" rx="2" transform="translate(221.615 11.5)" fill="#3f3d56"/>
  <circle id="Ellipse_2" data-name="Ellipse 2" cx="4" cy="4" r="4" transform="translate(588.203 8.5)" fill="#3f3d56"/>
  <circle id="Ellipse_3" data-name="Ellipse 3" cx="4" cy="4" r="4" transform="translate(605.895 8.5)" fill="#3f3d56"/>
  <circle id="Ellipse_4" data-name="Ellipse 4" cx="4" cy="4" r="4" transform="translate(623.587 8.5)" fill="#3f3d56"/>
  <path id="Path_43" data-name="Path 43" d="M358.715,62h-180a8.5,8.5,0,0,1,0-17h180a8.5,8.5,0,0,1,0,17Z" transform="translate(158.558)" fill="#e6e6e6"/>
  <path id="Path_44" data-name="Path 44" d="M181.715,57.5a5,5,0,1,1,5-5A5.006,5.006,0,0,1,181.715,57.5Zm0-8a3,3,0,1,0,3,3A3,3,0,0,0,181.715,49.5Z" transform="translate(107.903)" fill="#fff"/>
  <path id="Path_45" data-name="Path 45" d="M189.408,60.9a1,1,0,0,1-.684-.271l-4.693-4.4a1,1,0,0,1,1.367-1.459l4.693,4.4a1,1,0,0,1-.684,1.729Z" transform="translate(111.498)" fill="#fff"/>
  <path id="Path_46" data-name="Path 46" d="M181.215,231a1.5,1.5,0,0,0-1.5,1.5v1a1.5,1.5,0,0,0,1.5,1.5h35a1.5,1.5,0,0,0,1.5-1.5v-1a1.5,1.5,0,0,0-1.5-1.5Z" transform="translate(115.703 43.566)" fill="#3f3d56"/>
  <path id="Path_47" data-name="Path 47" d="M240.215,216h-82a12.514,12.514,0,0,1-12.5-12.5v-82a12.514,12.514,0,0,1,12.5-12.5h82a12.514,12.514,0,0,1,12.5,12.5v82A12.514,12.514,0,0,1,240.215,216Zm-82-105a10.5,10.5,0,0,0-10.5,10.5v82a10.5,10.5,0,0,0,10.5,10.5h57.439a35.061,35.061,0,0,0,35.061-35.061V121.5a10.5,10.5,0,0,0-10.5-10.5Z" transform="translate(108.333 25.273)" fill="#f2f2f2"/>
  <g id="Group_12" data-name="Group 12" transform="translate(266.734 145.998)">
    <path id="Path_48" data-name="Path 48" d="M170.215,119.5a11.513,11.513,0,0,0-11.5,11.5v18a11.513,11.513,0,0,0,11.5,11.5h18a11.513,11.513,0,0,0,11.5-11.5V131a11.513,11.513,0,0,0-11.5-11.5Z" transform="translate(-155.215 -119.5)" fill="#f2f2f2"/>
    <path id="Path_49" data-name="Path 49" d="M217.215,119.5a11.513,11.513,0,0,0-11.5,11.5v18a11.513,11.513,0,0,0,11.5,11.5h18a11.513,11.513,0,0,0,11.5-11.5V131a11.513,11.513,0,0,0-11.5-11.5Z" transform="translate(-155.215 -119.5)" fill="#f2f2f2"/>
    <path id="Path_50" data-name="Path 50" d="M166.715,165a11.513,11.513,0,0,0-11.5,11.5v18a11.513,11.513,0,0,0,11.5,11.5h18a11.513,11.513,0,0,0,11.5-11.5v-18a11.513,11.513,0,0,0-11.5-11.5Z" transform="translate(-155.215 -119.5)" fill="#f2f2f2"/>
  </g>
  <path id="Path_51" data-name="Path 51" d="M320.215,231a1.5,1.5,0,0,0-1.5,1.5v1a1.5,1.5,0,0,0,1.5,1.5h35a1.5,1.5,0,0,0,1.5-1.5v-1a1.5,1.5,0,0,0-1.5-1.5Z" transform="translate(205.193 43.566)" fill="#3f3d56"/>
  <path id="Path_52" data-name="Path 52" d="M181.215,409a1.5,1.5,0,0,0-1.5,1.5v1a1.5,1.5,0,0,0,1.5,1.5h35a1.5,1.5,0,0,0,1.5-1.5v-1a1.5,1.5,0,0,0-1.5-1.5Z" transform="translate(115.703 77.137)" fill="#3f3d56"/>
  <path id="Path_53" data-name="Path 53" d="M240.215,394h-82a12.514,12.514,0,0,1-12.5-12.5v-82a12.514,12.514,0,0,1,12.5-12.5h82a12.514,12.514,0,0,1,12.5,12.5v82A12.514,12.514,0,0,1,240.215,394Zm-82-105a10.5,10.5,0,0,0-10.5,10.5v82a10.5,10.5,0,0,0,10.5,10.5h58.439a34.061,34.061,0,0,0,34.061-34.061V299.5a10.5,10.5,0,0,0-10.5-10.5Z" transform="translate(108.333 66.544)" fill="#f2f2f2"/>
  <path id="Path_54" data-name="Path 54" d="M166.715,297a11.513,11.513,0,0,0-11.5,11.5v18a11.513,11.513,0,0,0,11.5,11.5h18a11.513,11.513,0,0,0,11.5-11.5v-18a11.513,11.513,0,0,0-11.5-11.5Z" transform="translate(100.515 60.038)" fill="#f2f2f2"/>
  <path id="Path_55" data-name="Path 55" d="M213.715,297a11.513,11.513,0,0,0-11.5,11.5v18a11.513,11.513,0,0,0,11.5,11.5h18a11.513,11.513,0,0,0,11.5-11.5v-18a11.513,11.513,0,0,0-11.5-11.5Z" transform="translate(130.952 60.038)" fill="#f2f2f2"/>
  <path id="Path_56" data-name="Path 56" d="M166.715,343a11.513,11.513,0,0,0-11.5,11.5v18a11.513,11.513,0,0,0,11.5,11.5h18a11.513,11.513,0,0,0,11.5-11.5v-18a11.513,11.513,0,0,0-11.5-11.5Z" transform="translate(100.515 69.337)" fill="#f2f2f2"/>
  <path id="Path_57" data-name="Path 57" d="M320.215,409a1.5,1.5,0,0,0-1.5,1.5v1a1.5,1.5,0,0,0,1.5,1.5h35a1.5,1.5,0,0,0,1.5-1.5v-1a1.5,1.5,0,0,0-1.5-1.5Z" transform="translate(205.193 77.137)" fill="#3f3d56"/>
  <path id="Path_58" data-name="Path 58" d="M379.215,394h-82a12.514,12.514,0,0,1-12.5-12.5v-82a12.514,12.514,0,0,1,12.5-12.5h82a12.514,12.514,0,0,1,12.5,12.5v82A12.514,12.514,0,0,1,379.215,394Zm-82-105a10.5,10.5,0,0,0-10.5,10.5v82a10.5,10.5,0,0,0,10.5,10.5h59.1a33.4,33.4,0,0,0,33.4-33.4V299.5a10.5,10.5,0,0,0-10.5-10.5Z" transform="translate(211.674 66.544)" fill="#f2f2f2"/>
  <path id="Path_59" data-name="Path 59" d="M305.715,297a11.513,11.513,0,0,0-11.5,11.5v18a11.513,11.513,0,0,0,11.5,11.5h18a11.513,11.513,0,0,0,11.5-11.5v-18a11.513,11.513,0,0,0-11.5-11.5Z" transform="translate(190.53 60.038)" fill="#f2f2f2"/>
  <path id="Path_60" data-name="Path 60" d="M352.715,297a11.513,11.513,0,0,0-11.5,11.5v18a11.513,11.513,0,0,0,11.5,11.5h18a11.513,11.513,0,0,0,11.5-11.5v-18a11.513,11.513,0,0,0-11.5-11.5Z" transform="translate(220.967 60.038)" fill="#f2f2f2"/>
  <path id="Path_61" data-name="Path 61" d="M305.715,343a11.513,11.513,0,0,0-11.5,11.5v18a11.513,11.513,0,0,0,11.5,11.5h18a11.513,11.513,0,0,0,11.5-11.5v-18a11.513,11.513,0,0,0-11.5-11.5Z" transform="translate(190.53 69.337)" fill="#f2f2f2"/>
  <path id="Path_62" data-name="Path 62" d="M252.715,477.5v59.71l-2-.21V477.5a10.2,10.2,0,0,0-.33-2.61,10.514,10.514,0,0,0-10.17-7.89h-82a10.491,10.491,0,0,0-10.5,10.5v45.04c-.67-.13-1.34-.26-2-.4V477.5a12.526,12.526,0,0,1,12.5-12.5h82a12.487,12.487,0,0,1,12.5,12.5Z" transform="translate(108.333 104.109)" fill="#f2f2f2"/>
  <path id="Path_63" data-name="Path 63" d="M184.715,475h-18a11.514,11.514,0,0,0-11.5,11.5v18a11.514,11.514,0,0,0,11.5,11.5h18a11.514,11.514,0,0,0,11.5-11.5v-18A11.514,11.514,0,0,0,184.715,475Z" transform="translate(100.515 104.109)" fill="#f2f2f2"/>
  <path id="Path_64" data-name="Path 64" d="M231.715,475h-18a11.514,11.514,0,0,0-11.5,11.5v18a11.514,11.514,0,0,0,11.5,11.5h18a11.514,11.514,0,0,0,11.5-11.5v-18A11.514,11.514,0,0,0,231.715,475Z" transform="translate(130.952 104.109)" fill="#f2f2f2"/>
  <path id="Path_65" data-name="Path 65" d="M184.715,521h-18a11.474,11.474,0,0,0-8.28,3.53c11.42,2.01,24.14,3.95,37.57,5.79a11.514,11.514,0,0,0-11.29-9.32Z" transform="translate(101.918 104.109)" fill="#f2f2f2"/>
  <path id="Path_66" data-name="Path 66" d="M391.715,477.5v71.96h-2V477.5a10.512,10.512,0,0,0-10.5-10.5h-82a10.512,10.512,0,0,0-10.5,10.5v63.23c-.66-.07-1.33-.13-2-.2V477.5a12.517,12.517,0,0,1,12.5-12.5h82A12.517,12.517,0,0,1,391.715,477.5Z" transform="translate(211.674 104.109)" fill="#f2f2f2"/>
  <path id="Path_67" data-name="Path 67" d="M323.715,475h-18a11.514,11.514,0,0,0-11.5,11.5v18a11.514,11.514,0,0,0,11.5,11.5h18a11.514,11.514,0,0,0,11.5-11.5v-18A11.514,11.514,0,0,0,323.715,475Z" transform="translate(190.53 104.109)" fill="#f2f2f2"/>
  <path id="Path_68" data-name="Path 68" d="M370.715,475h-18a11.514,11.514,0,0,0-11.5,11.5v18a11.514,11.514,0,0,0,11.5,11.5h18a11.514,11.514,0,0,0,11.5-11.5v-18A11.514,11.514,0,0,0,370.715,475Z" transform="translate(220.967 104.109)" fill="#f2f2f2"/>
  <path id="Path_69" data-name="Path 69" d="M323.715,521h-18a11.514,11.514,0,0,0-11.5,11.5v8.95c14.67,1.42,28.58,2.67,41,3.74V532.5A11.514,11.514,0,0,0,323.715,521Z" transform="translate(190.53 104.109)" fill="#f2f2f2"/>
  <path id="Path_70" data-name="Path 70" d="M206.944,342.829a4.914,4.914,0,0,0-4.909,4.909v7.683a4.914,4.914,0,0,0,4.909,4.909h7.683a4.914,4.914,0,0,0,4.909-4.909v-7.683a4.914,4.914,0,0,0-4.909-4.909Z" transform="translate(125.092 66.278)" fill="#f2f2f2"/>
  <path id="Path_71" data-name="Path 71" d="M230.944,342.829a4.914,4.914,0,0,0-4.909,4.909v7.683a4.914,4.914,0,0,0,4.909,4.909h7.683a4.914,4.914,0,0,0,4.909-4.909v-7.683a4.914,4.914,0,0,0-4.909-4.909Z" transform="translate(139.952 66.278)" fill="#f2f2f2"/>
  <path id="Path_72" data-name="Path 72" d="M206.944,166.829a4.914,4.914,0,0,0-4.909,4.909v7.683a4.914,4.914,0,0,0,4.909,4.909h7.683a4.914,4.914,0,0,0,4.909-4.909v-7.683a4.914,4.914,0,0,0-4.909-4.909h-7.683Z" transform="translate(125.092 32.253)" fill="#f2f2f2"/>
  <path id="Path_73" data-name="Path 73" d="M230.944,166.829a4.914,4.914,0,0,0-4.909,4.909v7.683a4.914,4.914,0,0,0,4.909,4.909h7.683a4.914,4.914,0,0,0,4.909-4.909v-7.683a4.914,4.914,0,0,0-4.909-4.909h-7.683Z" transform="translate(139.952 32.253)" fill="#f2f2f2"/>
  <path id="Path_74" data-name="Path 74" d="M353.8,521h-7.68a4.912,4.912,0,0,0-4.91,4.91v7.68a4.912,4.912,0,0,0,4.91,4.91h7.68a4.912,4.912,0,0,0,4.91-4.91v-7.68A4.912,4.912,0,0,0,353.8,521Z" transform="translate(211.266 104.109)" fill="#f2f2f2"/>
  <path id="Path_75" data-name="Path 75" d="M377.8,521h-7.68a4.912,4.912,0,0,0-4.91,4.91v7.68a4.912,4.912,0,0,0,4.91,4.91h7.68a4.912,4.912,0,0,0,4.91-4.91v-7.68A4.912,4.912,0,0,0,377.8,521Z" transform="translate(226.126 104.109)" fill="#f2f2f2"/>
  <path id="Path_76" data-name="Path 76" d="M353.8,544h-7.68a4.9,4.9,0,0,0-3.8,1.8c5.77.5,11.15.94,16.05,1.34A4.88,4.88,0,0,0,353.8,544Z" transform="translate(211.381 104.109)" fill="#f2f2f2"/>
  <path id="Path_77" data-name="Path 77" d="M377.8,544h-7.68a4.893,4.893,0,0,0-4.75,3.7c7.37.59,13.28,1.04,17.34,1.34v-.13A4.912,4.912,0,0,0,377.8,544Z" transform="translate(226.158 104.109)" fill="#f2f2f2"/>
  <g id="Group_17" data-name="Group 17" transform="translate(710.331 217.654)">
    <g id="Group_13" data-name="Group 13" transform="translate(7.961)">
      <path id="Path_78" data-name="Path 78" d="M397.936,121.544l3.367,16.788-9.322,3.261-2.928-17.876a5.732,5.732,0,1,1,8.883-2.173Z" transform="translate(-386.849 -113.545)" fill="#a0616a"/>
      <path id="Path_79" data-name="Path 79" d="M446.683,231.467l13.645-14.7-43.743-44.744s-1.787-1.68-.58-1.913-.619-2.042-.619-2.042-2.849-2.706-.564-1.862-.611-2.018-.611-2.018l-10.245-33.819-1.817-6-15.3,9.132s.136,1.161.406,3.141c1.365,9.991,6.16,40.837,14.257,48.676,9.7,9.393,45.171,46.145,45.171,46.145Z" transform="translate(-386.849 -113.545)" fill="#6c63ff"/>
    </g>
    <g id="Group_14" data-name="Group 14" transform="translate(0 393.955)">
      <path id="Path_80" data-name="Path 80" d="M408.186,544.675h-9.638L393.964,507.5h14.224Z" transform="translate(-378.888 -507.5)" fill="#a0616a"/>
      <path id="Path_81" data-name="Path 81" d="M408.525,554.729H378.888v-.375a11.536,11.536,0,0,1,11.535-11.535h0l5.414-4.107,10.1,4.108h2.587v11.91Z" transform="translate(-378.888 -507.5)" fill="#2f2e41"/>
    </g>
    <g id="Group_15" data-name="Group 15" transform="translate(82.381 386.53)">
      <path id="Path_82" data-name="Path 82" d="M486.809,535.228l-9.114,3.134L461.269,504.7l13.451-4.626Z" transform="translate(-461.269 -500.075)" fill="#a0616a"/>
      <path id="Path_83" data-name="Path 83" d="M490.4,544.625l-28.026,9.638-.122-.354a11.536,11.536,0,0,1,7.156-14.66h0l3.783-5.644,10.887.6,2.446-.841Z" transform="translate(-461.269 -500.075)" fill="#2f2e41"/>
    </g>
    <path id="Path_84" data-name="Path 84" d="M468.825,295.916H404.2s-3.146,27.981-4.313,26.283-.829.768-.5,3.035-2.96,3.665-.815,4.966,1.375,3.714-.74,4.507-1.115,6.794-1.115,6.794l-11,107.417,9,80.583h15l20-147v75l40,67,13-5-16-72,12-133-9.89-18.584Z" transform="translate(-378.888 -113.545)" fill="#2f2e41"/>
    <path id="Path_85" data-name="Path 85" d="M479.715,303.5l-4.94,5.42-75.06,2.58-3-7,15-34,16-69,7-15v-1.65a1.484,1.484,0,0,0-.157-.664h0a1.485,1.485,0,0,1,.994-2.111l.163-2.576-2,1,13-6,10.7,1.05.3.95,2.23,1.71a36.773,36.773,0,0,1,14.44,29.88l-.67,37.41,6,58Z" transform="translate(-378.888 -113.545)" fill="#3f3d56"/>
    <path id="Path_86" data-name="Path 86" d="M435.976,169.478c.446.1.892.192,1.338.261a18.6,18.6,0,0,0,4.124.213,19.466,19.466,0,1,0-19.887-24.32c-.041.158-.082.309-.117.467a19.473,19.473,0,0,0,14.542,23.38Z" transform="translate(-378.888 -113.545)" fill="#a0616a"/>
    <g id="Group_16" data-name="Group 16" transform="translate(23.702 80.455)">
      <path id="Path_87" data-name="Path 87" d="M406.406,304.513l10.013-13.889,8.732,4.613-11.109,14.308a5.732,5.732,0,1,1-7.636-5.032Z" transform="translate(-402.591 -194)" fill="#a0616a"/>
      <path id="Path_88" data-name="Path 88" d="M453.8,194H433.746l-3.031,62.5s-.016,2.453-1.008,1.726-1.076,1.843-1.076,1.843-.045,3.929-.981,1.68-1.063,1.821-1.063,1.821l-17.815,30.517-3.16,5.413,17.1,5s.758-.889,2.026-2.435c6.393-7.8,25.738-32.3,25.974-43.565C451,245,453.8,194,453.8,194Z" transform="translate(-402.591 -194)" fill="#6c63ff"/>
    </g>
    <path id="Path_89" data-name="Path 89" d="M427.715,208.5s16-21,30-1l-3-26-15.3-2.818a1.485,1.485,0,0,0-1.642,1.526L427.715,208.5Z" transform="translate(-378.888 -113.545)" fill="#3f3d56"/>
    <path id="Path_90" data-name="Path 90" d="M433.715,187.5l-.05-3.46-.46-.74.51-.8.08-.18,1.92-7.82,17.1-6,4.6,7.05c-6.91,4.66-8.48,12.12-23.7,11.95Z" transform="translate(-378.888 -113.545)" fill="#6c63ff"/>
    <path id="Path_91" data-name="Path 91" d="M449.858,166.588l-1.667-12.514a1.358,1.358,0,0,0-2.476-.574h-3l-3-10s-1.144,4.527-3.078,3.417c-2.129-1.222-4.8-.609-7.164.036l1.081-2.872-4.815,1.317.646-2.038-2.993.959c.514-.383.051-1.294-.583-1.393s-3.094,2.575-4.094,2.575a4.071,4.071,0,0,1-2.272-1.185c-1.688-1.39-2.53-8.366-1.728-9.815,1.488-2.687,4.863-1.794,7-4,.476-.492,5.516-.516,6-1a21.37,21.37,0,0,1,5.76-2.739c.844-.007,1.642,1.049,1.093,1.69.392-1.272,2.028-1.6,3.359-1.574.936.018,3.854-2.459,4.787-2.377,2.009.178,2.034,2.915,4.043,3.093,1.623.143,3.549.5,4.188,1.994a6.432,6.432,0,0,1,.242,2.358,2.465,2.465,0,0,0,.909,2.1,1.949,1.949,0,0,0,1.975-.109,5.738,5.738,0,0,0,1.467-1.457c.649,2.1,4.3,7.2,4.948,9.3a44.935,44.935,0,0,1,1.651,6.458c1.021,6.7-6.2,13.826-10.842,18.765" transform="translate(-378.888 -113.545)" fill="#2f2e41"/>
  </g>
  <path id="Path_92" data-name="Path 92" d="M297.215,110a11.513,11.513,0,0,0-11.5,11.5v82a11.513,11.513,0,0,0,11.5,11.5h82a11.513,11.513,0,0,0,11.5-11.5v-82a11.513,11.513,0,0,0-11.5-11.5Z" transform="translate(211.469 25.392)" fill="#f2f2f2"/>
  <path id="Path_93" data-name="Path 93" d="M305.715,119a11.513,11.513,0,0,0-11.5,11.5v18a11.513,11.513,0,0,0,11.5,11.5h18a11.513,11.513,0,0,0,11.5-11.5v-18a11.513,11.513,0,0,0-11.5-11.5Z" transform="translate(190.53 24.056)" fill="#6c63ff"/>
  <path id="Path_94" data-name="Path 94" d="M352.715,119a11.513,11.513,0,0,0-11.5,11.5v18a11.513,11.513,0,0,0,11.5,11.5h18a11.513,11.513,0,0,0,11.5-11.5v-18a11.513,11.513,0,0,0-11.5-11.5Z" transform="translate(220.967 24.056)" fill="#6c63ff"/>
  <path id="Path_95" data-name="Path 95" d="M305.715,165a11.513,11.513,0,0,0-11.5,11.5v18a11.513,11.513,0,0,0,11.5,11.5h18a11.513,11.513,0,0,0,11.5-11.5v-18a11.513,11.513,0,0,0-11.5-11.5Z" transform="translate(190.53 33.355)" fill="#fff"/>
  <g id="Group_18" data-name="Group 18" transform="translate(562.397 198.322)">
    <path id="Path_96" data-name="Path 96" d="M346.123,165a4.914,4.914,0,0,0-4.909,4.909v7.683a4.914,4.914,0,0,0,4.909,4.909h7.683a4.914,4.914,0,0,0,4.909-4.909v-7.683A4.914,4.914,0,0,0,353.806,165Z" transform="translate(-341.214 -165)" fill="#fff"/>
    <path id="Path_97" data-name="Path 97" d="M370.123,165a4.914,4.914,0,0,0-4.909,4.909v7.683a4.914,4.914,0,0,0,4.909,4.909h7.683a4.914,4.914,0,0,0,4.909-4.909v-7.683A4.914,4.914,0,0,0,377.806,165Z" transform="translate(-341.214 -165)" fill="#fff"/>
    <path id="Path_98" data-name="Path 98" d="M346.123,188a4.914,4.914,0,0,0-4.909,4.909v7.683a4.914,4.914,0,0,0,4.909,4.909h7.683a4.914,4.914,0,0,0,4.909-4.909v-7.683A4.914,4.914,0,0,0,353.806,188Z" transform="translate(-341.214 -165)" fill="#fff"/>
    <path id="Path_99" data-name="Path 99" d="M370.123,188a4.914,4.914,0,0,0-4.909,4.909v7.683a4.914,4.914,0,0,0,4.909,4.909h7.683a4.914,4.914,0,0,0,4.909-4.909v-7.683A4.914,4.914,0,0,0,377.806,188Z" transform="translate(-341.214 -165)" fill="#fff"/>
  </g>
  <g id="Group_19" data-name="Group 19" transform="translate(0 559.365)">
    <path id="Path_100" data-name="Path 100" d="M498.551,538.68a2.269,2.269,0,0,0,1.645-3.933l-.155-.618.062-.148a6.094,6.094,0,0,1,11.241.042c1.839,4.428,4.179,8.864,4.756,13.546a18.029,18.029,0,0,1-.316,6.2,72.282,72.282,0,0,0,6.575-30.021,69.775,69.775,0,0,0-.433-7.783q-.359-3.178-.995-6.31a73.119,73.119,0,0,0-14.5-30.99,19.459,19.459,0,0,1-8.093-8.4,14.843,14.843,0,0,1-1.35-4.056c.394.052,1.486-5.949,1.188-6.317.549-.833,1.532-1.247,2.131-2.06,2.982-4.043,7.091-3.337,9.236,2.157,4.582,2.313,4.627,6.148,1.815,9.837-1.789,2.347-2.035,5.522-3.6,8.035.161.207.329.407.491.614a73.588,73.588,0,0,1,7.681,12.169,30.592,30.592,0,0,1,1.826-14.21c1.748-4.217,5.025-7.769,7.91-11.415a6.279,6.279,0,0,1,11.184,3.083q.009.081.017.161-.643.363-1.259.77a3.078,3.078,0,0,0,1.241,5.6l.063.01a30.634,30.634,0,0,1-.807,4.579c3.7,14.316-4.29,19.53-15.7,19.764-.252.129-.5.258-.749.381a75.116,75.116,0,0,1,4.043,19.028,71.236,71.236,0,0,1-.052,11.5l.019-.136a18.826,18.826,0,0,1,6.427-10.87c4.946-4.063,11.933-5.559,17.268-8.824a3.533,3.533,0,0,1,5.411,3.437l-.022.143a20.684,20.684,0,0,0-2.319,1.117q-.643.363-1.259.77a3.078,3.078,0,0,0,1.241,5.6l.063.01.129.019A30.653,30.653,0,0,1,544.964,530c-2.315,12.5-12.256,13.683-22.89,10.044h-.006a75.093,75.093,0,0,1-5.044,14.726H499c-.065-.2-.123-.407-.181-.607a20.478,20.478,0,0,0,4.986-.3c-1.337-1.641-2.674-3.294-4.011-4.935a1.121,1.121,0,0,1-.084-.1c-.678-.84-1.363-1.673-2.041-2.512h0a29.99,29.99,0,0,1,.879-7.64h0Z" transform="translate(331.442 -455.256)" fill="#f2f2f2"/>
    <path id="Path_101" data-name="Path 101" d="M0,554.823c0,.66.848,1.19,1.9,1.19h880.3c1.056,0,1.9-.53,1.9-1.19s-.848-1.19-1.9-1.19H1.9C.848,553.633,0,554.163,0,554.823Z" transform="translate(0 -455.256)" fill="#ccc"/>
  </g>
</svg>
