<svg xmlns="http://www.w3.org/2000/svg" width="736" height="566.424" viewBox="0 0 736 566.424">
  <g id="undraw_interior_design_re_7mvn" transform="translate(0 0.424)">
    <rect id="Rectangle_8" data-name="Rectangle 8" width="623" height="14.233" transform="translate(46 275.08)" fill="#e6e6e6"/>
    <g id="Group_25" data-name="Group 25" transform="translate(46 218.545)">
      <path id="Path_104" data-name="Path 104" d="M63.693,262.6A7.957,7.957,0,0,0,66,257V223a8.015,8.015,0,0,0-2.34-5.66A7.985,7.985,0,0,0,58,215a8,8,0,0,0-8,8v34a7.962,7.962,0,0,0,1.956,5.232A10.992,10.992,0,0,0,46,272H69A10.982,10.982,0,0,0,63.693,262.6Z" transform="translate(-46 -213.322)" fill="#3f3d56"/>
      <path id="Path_105" data-name="Path 105" d="M620.262,261.339A7.973,7.973,0,0,0,623,255.322v-34a8,8,0,0,0-8-8,7.989,7.989,0,0,0-8,8v34a7.954,7.954,0,0,0,2.406,5.692A10.992,10.992,0,0,0,603,271h23A11,11,0,0,0,620.262,261.339Z" transform="translate(-3 -213.322)" fill="#3f3d56"/>
    </g>
    <rect id="Rectangle_9" data-name="Rectangle 9" width="14.23" height="10.62" transform="translate(46 288.681)" fill="#e6e6e6"/>
    <path id="Path_106" data-name="Path 106" d="M68.18,293H53.11l-.66-2-2.56-7.73-.07-.21,1.94-.68,11.49-4.03,1.65,4.92L67.5,291Z" transform="translate(0 6.258)" fill="#e6e6e6"/>
    <path id="Path_107" data-name="Path 107" d="M622.18,283.06l-.07.21L619.55,291l-.66,2H603.82l.68-2,2.6-7.73,1.65-4.92,11.49,4.03Z" transform="translate(43 6.258)" fill="#e6e6e6"/>
    <rect id="Rectangle_10" data-name="Rectangle 10" width="14.23" height="10.62" transform="translate(654.77 288.681)" fill="#e6e6e6"/>
    <rect id="Rectangle_11" data-name="Rectangle 11" width="266" height="103" transform="translate(74 -0.424)" fill="#3f3d56"/>
    <rect id="Rectangle_12" data-name="Rectangle 12" width="266" height="103" transform="translate(74 -0.424)" fill="#3f3d56"/>
    <path id="Path_108" data-name="Path 108" d="M78,0V99H279.394A56.606,56.606,0,0,0,336,42.394V0Z" fill="#fff"/>
    <path id="Path_109" data-name="Path 109" d="M711.9,0H24.1C10.812,0,0,10.18,0,22.69V270.31C0,282.82,10.812,293,24.1,293H711.9c13.286,0,24.1-10.18,24.1-22.69V22.69C736,10.18,725.188,0,711.9,0Zm21.974,270.31c0,11.43-9.835,20.69-21.974,20.69H24.1c-12.139,0-21.974-9.26-21.974-20.69V22.69C2.124,11.26,11.959,2,24.1,2H568.536c91.315,0,165.34,69.7,165.34,155.68Z" fill="#3f3d56"/>
    <path id="Path_110" data-name="Path 110" d="M361.37,209.23H324.24a1.978,1.978,0,0,0-1.97,1.99v58.65h41.09V211.22a1.989,1.989,0,0,0-1.99-1.99Zm-14.05,28.95a4.322,4.322,0,0,1-.89,2.63,4.365,4.365,0,0,1-6.99,0,4.322,4.322,0,0,1-.89-2.63v-6.81a4.385,4.385,0,0,1,8.77,0Z" transform="translate(21.257 5.143)" fill="#2f2e41"/>
    <path id="Path_111" data-name="Path 111" d="M322.14,268v5.65a1.105,1.105,0,0,0,1.1,1.11h39.14a1.112,1.112,0,0,0,1.1-1.11V268H322.14Z" transform="translate(21.257 5.938)" fill="#3f3d56"/>
    <path id="Path_112" data-name="Path 112" d="M422.86,117.7H264.14a5.151,5.151,0,0,0-5.14,5.14v107.1a5.153,5.153,0,0,0,5.14,5.15H422.86a5.153,5.153,0,0,0,5.14-5.15V122.84a5.151,5.151,0,0,0-5.14-5.14Z" transform="translate(21.254 3.269)" fill="#3f3d56"/>
    <path id="Path_113" data-name="Path 113" d="M421.52,121.41H265.47a2.75,2.75,0,0,0-2.75,2.75v73.732A33.577,33.577,0,0,0,296.2,231.37H421.53a2.758,2.758,0,0,0,2.75-2.75V124.17a2.768,2.768,0,0,0-2.76-2.76Z" transform="translate(21.257 3.316)" fill="#fff"/>
    <g id="Group_26" data-name="Group 26" transform="translate(317.947 272.412)">
      <path id="Path_114" data-name="Path 114" d="M392.8,274.67l-1.19-5.63-.25-1.21a1.7,1.7,0,0,0-1.67-1.36H299.72a1.72,1.72,0,0,0-1.67,1.36l-.25,1.21-1.19,5.63a1.711,1.711,0,0,0,.35,1.43,1.693,1.693,0,0,0,1.32.63h92.85a1.7,1.7,0,0,0,1.67-2.06Z" transform="translate(-296.576 -266.47)" fill="#3f3d56"/>
      <rect id="Rectangle_13" data-name="Rectangle 13" width="2.86" height="1.716" rx="0.369" transform="translate(3.808 1.233)" fill="#e6e6e6"/>
      <rect id="Rectangle_14" data-name="Rectangle 14" width="2.86" height="1.716" rx="0.369" transform="translate(89.53 4.093)" fill="#e6e6e6"/>
      <rect id="Rectangle_15" data-name="Rectangle 15" width="22.877" height="1.716" rx="0.369" transform="translate(31.193 7.524)" fill="#e6e6e6"/>
    </g>
    <g id="Group_27" data-name="Group 27" transform="translate(84.547 66.294)">
      <path id="Path_115" data-name="Path 115" d="M93.656,194.9c-12-39.8-12.753-79.65,1.4-119.578a9.14,9.14,0,0,1,9.236-9.022L194.6,67.351a9.14,9.14,0,0,1,9.022,9.235l-1.4,119.578a9.14,9.14,0,0,1-9.235,9.022l-90.308-1.056a9.14,9.14,0,0,1-9.022-9.235Z" transform="translate(-84.547 -66.294)" fill="#f2f2f2"/>
      <path id="Path_116" data-name="Path 116" d="M112.394,199.631a9.14,9.14,0,0,1-9.022-9.235c-12-39.8-12.753-79.65,1.4-119.578a9.022,9.022,0,0,1,1.3-4.5l-1.777-.021a9.14,9.14,0,0,0-9.236,9.022c-14.151,39.928-13.4,79.781-1.4,119.578a9.14,9.14,0,0,0,9.022,9.235l90.308,1.056a9.1,9.1,0,0,0,7.938-4.519l-88.531-1.035Z" transform="translate(-84.547 -66.294)" opacity="0.2" style="isolation: isolate"/>
      <path id="Path_117" data-name="Path 117" d="M178.914,134.161l-60.519-.54a3.631,3.631,0,0,1,.065-7.262l60.519.54a3.631,3.631,0,0,1-.065,7.262h0Z" transform="translate(-84.547 -66.294)" fill="#fff"/>
      <path id="Path_118" data-name="Path 118" d="M131.886,113.827l-13.314-.119a3.631,3.631,0,1,1,.042-7.263h.023l13.314.119a3.631,3.631,0,0,1-.065,7.262Z" transform="translate(-84.547 -66.294)" fill="#fff"/>
      <path id="Path_119" data-name="Path 119" d="M178.629,166.088l-60.519-.54a3.631,3.631,0,0,1,.065-7.262l60.519.54a3.631,3.631,0,1,1-.042,7.263Z" transform="translate(-84.547 -66.294)" fill="#fff"/>
      <path id="Path_120" data-name="Path 120" d="M178.771,150.124l-60.519-.54a3.631,3.631,0,0,1,.056-7.262h.009l60.519.54a3.631,3.631,0,0,1-.065,7.262h0Z" transform="translate(-84.547 -66.294)" fill="#fff"/>
      <circle id="Ellipse_5" data-name="Ellipse 5" cx="7.816" cy="7.816" r="7.816" transform="translate(24.17 2.953)" fill="#3f3d56"/>
      <circle id="Ellipse_6" data-name="Ellipse 6" cx="7.816" cy="7.816" r="7.816" transform="translate(89.985 4.953)" fill="#3f3d56"/>
    </g>
    <g id="Group_28" data-name="Group 28" transform="translate(291.291 131.494)">
      <ellipse id="Ellipse_7" data-name="Ellipse 7" cx="3.321" cy="3.395" rx="3.321" ry="3.395" fill="#f2f2f2"/>
      <ellipse id="Ellipse_8" data-name="Ellipse 8" cx="3.321" cy="3.395" rx="3.321" ry="3.395" transform="translate(11.472)" fill="#f2f2f2"/>
      <ellipse id="Ellipse_9" data-name="Ellipse 9" cx="3.321" cy="3.395" rx="3.321" ry="3.395" transform="translate(22.944)" fill="#f2f2f2"/>
      <path id="Path_121" data-name="Path 121" d="M309.447,134.721a.391.391,0,0,1-.281-.118l-2.241-2.291a.392.392,0,0,1,0-.549l2.241-2.29a.393.393,0,1,1,.561.549l-1.972,2.016,1.972,2.016a.393.393,0,0,1-.281.667Z" transform="translate(-270.101 -128.643)" fill="#f2f2f2"/>
      <path id="Path_122" data-name="Path 122" d="M313.212,134.721a.393.393,0,0,1-.281-.667l1.972-2.016-1.972-2.016a.393.393,0,1,1,.561-.549l2.24,2.29a.392.392,0,0,1,0,.549l-2.24,2.291A.391.391,0,0,1,313.212,134.721Z" transform="translate(-270.101 -128.643)" fill="#f2f2f2"/>
      <path id="Path_123" data-name="Path 123" d="M404.515,129.036h-4.166a.86.86,0,0,0-.86.86v4.17a.86.86,0,0,0,.86.86h4.166a.863.863,0,0,0,.864-.86V129.9A.863.863,0,0,0,404.515,129.036Z" transform="translate(-270.101 -128.643)" fill="#f2f2f2"/>
      <path id="Path_124" data-name="Path 124" d="M394.3,129.036h-4.166a.86.86,0,0,0-.86.86v4.17a.86.86,0,0,0,.86.86H394.3a.863.863,0,0,0,.864-.86V129.9A.863.863,0,0,0,394.3,129.036Z" transform="translate(-270.101 -128.643)" fill="#f2f2f2"/>
      <path id="Path_125" data-name="Path 125" d="M414.136,129.232H409.97a.86.86,0,0,0-.86.86v4.17a.86.86,0,0,0,.86.86h4.166a.863.863,0,0,0,.864-.86v-4.17A.863.863,0,0,0,414.136,129.232Z" transform="translate(-270.101 -128.643)" fill="#f2f2f2"/>
      <path id="Path_126" data-name="Path 126" d="M359.191,130.819H343.165a1.048,1.048,0,1,0,0,2.1h16.026a1.048,1.048,0,0,0,0-2.1Z" transform="translate(-270.101 -128.643)" fill="#f2f2f2"/>
    </g>
    <g id="Group_29" data-name="Group 29" transform="translate(320.897 12.023)">
      <path id="Path_127" data-name="Path 127" d="M303.09,32.19a29.356,29.356,0,0,1,.219-18.752,1.433,1.433,0,0,1,1.448-1.415l14.162.166a1.433,1.433,0,0,1,1.415,1.448l-.219,18.752a1.433,1.433,0,0,1-1.448,1.415L304.5,33.638a1.433,1.433,0,0,1-1.415-1.448Z" transform="translate(-301.661 -12.023)" fill="#f2f2f2"/>
      <path id="Path_128" data-name="Path 128" d="M306.028,32.933a1.433,1.433,0,0,1-1.415-1.448,29.356,29.356,0,0,1,.219-18.752,1.415,1.415,0,0,1,.2-.706l-.279,0a1.433,1.433,0,0,0-1.448,1.415,29.356,29.356,0,0,0-.219,18.752,1.433,1.433,0,0,0,1.415,1.448l14.162.166a1.427,1.427,0,0,0,1.245-.709l-13.883-.162Z" transform="translate(-301.661 -12.023)" opacity="0.2" style="isolation: isolate"/>
    </g>
    <g id="Group_30" data-name="Group 30" transform="translate(288.984 12.023)">
      <path id="Path_129" data-name="Path 129" d="M273.09,32.19a29.356,29.356,0,0,1,.219-18.752,1.433,1.433,0,0,1,1.448-1.415l14.162.166a1.433,1.433,0,0,1,1.415,1.448l-.219,18.752a1.433,1.433,0,0,1-1.448,1.415L274.5,33.638a1.433,1.433,0,0,1-1.415-1.448Z" transform="translate(-271.661 -12.023)" fill="#f2f2f2"/>
      <path id="Path_130" data-name="Path 130" d="M276.028,32.933a1.433,1.433,0,0,1-1.415-1.448,29.356,29.356,0,0,1,.219-18.752,1.415,1.415,0,0,1,.2-.706l-.279,0a1.433,1.433,0,0,0-1.448,1.415,29.356,29.356,0,0,0-.219,18.752,1.433,1.433,0,0,0,1.415,1.448l14.162.166a1.427,1.427,0,0,0,1.245-.709l-13.883-.162Z" transform="translate(-271.661 -12.023)" opacity="0.2" style="isolation: isolate"/>
    </g>
    <g id="Group_31" data-name="Group 31" transform="translate(263.454 12.023)">
      <path id="Path_131" data-name="Path 131" d="M249.09,32.19a29.356,29.356,0,0,1,.219-18.752,1.433,1.433,0,0,1,1.448-1.415l14.162.166a1.433,1.433,0,0,1,1.415,1.448l-.219,18.752a1.433,1.433,0,0,1-1.448,1.415L250.5,33.638a1.433,1.433,0,0,1-1.415-1.448Z" transform="translate(-247.661 -12.023)" fill="#f2f2f2"/>
      <path id="Path_132" data-name="Path 132" d="M252.028,32.933a1.433,1.433,0,0,1-1.415-1.448,29.356,29.356,0,0,1,.219-18.752,1.415,1.415,0,0,1,.2-.706l-.279,0a1.433,1.433,0,0,0-1.448,1.415,29.356,29.356,0,0,0-.219,18.752,1.433,1.433,0,0,0,1.415,1.448l14.162.166a1.427,1.427,0,0,0,1.245-.709l-13.883-.162Z" transform="translate(-247.661 -12.023)" opacity="0.2" style="isolation: isolate"/>
    </g>
    <circle id="Ellipse_10" data-name="Ellipse 10" cx="2.751" cy="2.751" r="2.751" transform="translate(272.117 13.572)" fill="#3f3d56"/>
    <circle id="Ellipse_11" data-name="Ellipse 11" cx="2.751" cy="2.751" r="2.751" transform="translate(296.556 13.572)" fill="#3f3d56"/>
    <circle id="Ellipse_12" data-name="Ellipse 12" cx="2.751" cy="2.751" r="2.751" transform="translate(327.37 13.572)" fill="#3f3d56"/>
    <path id="Path_133" data-name="Path 133" d="M64,223v34a7.973,7.973,0,0,1-2.341,5.654A1.572,1.572,0,0,1,59,261.513V218.474a1.568,1.568,0,0,1,2.637-1.157l.023.022A8.015,8.015,0,0,1,64,223Z" transform="translate(0 5.179)" fill="#6c63ff"/>
    <path id="Path_134" data-name="Path 134" d="M609,221.323v34a7.973,7.973,0,0,0,2.341,5.654A1.572,1.572,0,0,0,614,259.836V216.8a1.568,1.568,0,0,0-2.637-1.157l-.023.022A8.015,8.015,0,0,0,609,221.323Z" transform="translate(43 5.139)" fill="#6c63ff"/>
    <rect id="Rectangle_16" data-name="Rectangle 16" width="69" height="82" transform="translate(464 29.576)" fill="#3f3d56"/>
    <path id="Path_135" data-name="Path 135" d="M438,108h61V34H438Z" transform="translate(29.801)" fill="#fff"/>
    <path id="Path_136" data-name="Path 136" d="M468.34,40A24.291,24.291,0,0,0,444,64.34V102h49V40Z" transform="translate(29.646)" fill="#3f3d56"/>
    <path id="Path_137" data-name="Path 137" d="M481.181,101.972H453a14.965,14.965,0,0,1,14.091-9.965,14.575,14.575,0,0,1,4.494.7A14.957,14.957,0,0,1,481.181,101.972Z" transform="translate(29.3)" fill="#6c63ff"/>
    <g id="Group_32" data-name="Group 32" transform="translate(473.646 41.028)">
      <path id="Path_138" data-name="Path 138" d="M448,86a15.086,15.086,0,0,0-4,.54V102h18.96c.03-.33.04-.66.04-1a15,15,0,0,0-15-15Z" transform="translate(-444 -41.028)" fill="#6c63ff"/>
      <path id="Path_139" data-name="Path 139" d="M493,56.972V44.017A14.943,14.943,0,0,0,471.585,47.7a14.574,14.574,0,0,0-4.494-.7,14.843,14.843,0,0,0-6.1,1.305c-.03.013-.057.031-.086.044-.009-.015-.017-.031-.026-.046a15.061,15.061,0,0,0-4.85-4.97A24.418,24.418,0,0,0,445.12,57h7.891c2.517,6.8,5.114,11.134,7.777,13.439a10.744,10.744,0,0,0-4.739,14.793c5.682,10.583,10.108,12.781,13.9,10.745a14.9,14.9,0,0,0-.866,5c0,.339.01.668.04,1H493V89.018a14.926,14.926,0,0,0-16.437-.982l.047-.084A17.366,17.366,0,0,1,491.727,79H493V66.046a14.93,14.93,0,0,0-17.5-.308l.1-.125a22.08,22.08,0,0,1,17.4-8.64h0Z" transform="translate(-444 -41.028)" fill="#6c63ff"/>
    </g>
    <rect id="Rectangle_17" data-name="Rectangle 17" width="1" height="57" transform="translate(495 44.576)" fill="#3f3d56"/>
    <g id="Group_33" data-name="Group 33" transform="translate(514.093 518.779)">
      <path id="Path_140" data-name="Path 140" d="M507.178,536.66l-7.585-.064-3.358-29.94,11.2.094Z" transform="translate(-482.881 -506.656)" fill="#ffb6b6"/>
      <path id="Path_141" data-name="Path 141" d="M482.881,548.722a3.4,3.4,0,0,0,3.362,3.421l15.082.126,2.64-5.352.97,5.379,5.691.052-1.437-19.185-1.98-.132-8.076-.557-2.605-.174-.046,5.428-12.115,8.217a3.39,3.39,0,0,0-1.486,2.777Z" transform="translate(-482.881 -506.656)" fill="#2f2e41"/>
    </g>
    <g id="Group_34" data-name="Group 34" transform="translate(608.85 518.779)">
      <path id="Path_142" data-name="Path 142" d="M590.147,536.66l-7.585-.064-3.358-29.94,11.2.094Z" transform="translate(-565.85 -506.656)" fill="#ffb6b6"/>
      <path id="Path_143" data-name="Path 143" d="M565.85,548.722a3.4,3.4,0,0,0,3.362,3.421l15.082.126,2.64-5.352.97,5.379,5.691.052-1.437-19.185-1.98-.132-8.076-.557L579.5,532.3l-.046,5.428-12.115,8.217a3.39,3.39,0,0,0-1.486,2.777Z" transform="translate(-565.85 -506.656)" fill="#2f2e41"/>
    </g>
    <path id="Path_144" data-name="Path 144" d="M465.068,105.229a7.154,7.154,0,0,1-.621,10.878L473.1,150.7l-8.98,4.745-9.974-41.161a7.144,7.144,0,0,1,10.924-9.054Z" transform="translate(28.948 2.495)" fill="#ffb6b6"/>
    <path id="Path_145" data-name="Path 145" d="M509.539,300.493h63.272s19.316,28.319,14.91,54.751l-9.178,78.2L598,524.853l-18.723,1.836L546.971,433.44,542.565,376.9l-8.077,60.942-24.95,86.088-18,.185,10.646-87.007,4.415-81.984s2.7-5.677.426-7.92.335-6.226.335-6.226,3.48-5.508.436-8.1,1.744-32.384,1.744-32.384Z" transform="translate(43 12.123)" fill="#2f2e41"/>
    <path id="Path_146" data-name="Path 146" d="M595,323.672s-57.271-15.419-55.068,2.2c.975,7.8-30.97,2.871-40.831,1.711l9.626-41.727-15.962,40.868c-2.908-.455-4.714-.808-4.714-.808l21.043-51.441s2.2-49.928-2.313-62.168,6.718-17.13,6.718-17.13c11.1-8.233,16.394-16.365,11.682-24.325l24.3,2.093,2.2,11.953,20.661,10.059-10.068,59.547s-1.31,1.446-.445,2.631,1.015,2.13-.529,3.126-.824,4.873-.824,4.873.073,2.4,1.513,2.564.949,1.609.949,1.609-.094,2.91,1.3,2.2c.936-.475,21.719,39.483,23.3,38.845s1.038,4.075,2.413,4.288,1.384,2.467,1.977,3.527c1.892,3.381,3.068,5.5,3.068,5.5Z" transform="translate(43 5.25)" fill="#6c63ff"/>
    <path id="Path_147" data-name="Path 147" d="M530.1,215.429l2.5-23.3-32.578-7.869-32.717-60.3-10.279,4.405v10.279s-8.811,8.811,20.905,50.727l8.464,11.683,46.2,21.7-2.5-7.323Z" transform="translate(31.807 3.302)" fill="#6c63ff"/>
    <g id="Group_35" data-name="Group 35" transform="translate(536.916 71.354)">
      <path id="Path_148" data-name="Path 148" d="M502.115,76.792a7.154,7.154,0,0,0,6.383,8.83l11.348,33.8,10.122-.84L516.2,78.535a7.144,7.144,0,0,0-14.081-1.743Z" transform="translate(-501.898 -71.354)" fill="#ffb6b6"/>
      <path id="Path_149" data-name="Path 149" d="M571.68,203.339h0a15.32,15.32,0,0,0,2.081-24l-34.937-32.734s1.318-51.279-12.26-51.4l-2.935-9.171-15.793,7.537,1.919,7.58s1.033,31.368,10.311,40.722c.168,13.214,5.706,16.716,5.706,16.716l45.908,44.75Z" transform="translate(-501.898 -71.354)" fill="#6c63ff"/>
    </g>
    <circle id="Ellipse_13" data-name="Ellipse 13" cx="20.816" cy="20.816" r="20.816" transform="translate(553.773 131.34)" fill="#ffb6b6"/>
    <path id="Path_150" data-name="Path 150" d="M590.876,205.448a8.416,8.416,0,0,1-4.23,7.23,12.974,12.974,0,0,1-2.63.97c-.03-.3-.08-.59-.13-.88a31.092,31.092,0,0,0-5.9-13.57c-1.43-1.88,2.53,8.78,3.53,14.78-.91-1.82-5.54-13.5-5.84-13.94a1.614,1.614,0,0,0,.06.21,41.918,41.918,0,0,1,2.07,14.11c-5.8,8.27-10.85,10.5-15.5,9.57a14.6,14.6,0,0,0-.64-11.74,15.734,15.734,0,0,1-4.97,9.19,48.609,48.609,0,0,1-6.47-5.71,30.958,30.958,0,0,0,3.02-35.3,41.961,41.961,0,0,1-12.55,35.4c-2.22-.34-4.22-1.22-5.11-3.2a6.425,6.425,0,0,1,.78-5.8c1.03-1.74-2.58-10.15-1.37-11.77,5.06-6.74,9.87-9.98,4.45-16.43-2.49-2.97-5.96-5.25-7.45-8.83-1.88-4.51-.07-9.66,2.11-14.02s9.48-2.33,4.6-2.73c-8.39-.68-4.73-7.49-6.57-10.33-1.03-1.59-3.57-1.33-5.47-1.35a30.1,30.1,0,0,0-2.79-6.47,39.244,39.244,0,0,1,.33,6.68c-1.52.26-3.99,2.81-5.3,3.63l-.48.23c-1.85-1.06-1.575-3.042-1.585-5.182s-4.14-4.19-3-6c3.03-4.79,2.055-7.488,7.676-8.218s10.85-2.86,15,1c4-8,19.57-.94,23.33.57a14.255,14.255,0,0,1,8.07,8.58c2.98,8.9,1.47,13,6.6,20.85,4.39,6.72,10.6,3.55,13.51,11.03,1.83,4.72-.35,9.94-2.29,14.61s-5.95,15.33-.95,14.57c4.26-.66,6.33,3.58,6.09,8.26Z" transform="translate(43 3.298)" fill="#2f2e41"/>
    <path id="Path_151" data-name="Path 151" d="M610.524,536.544a2.269,2.269,0,0,0,1.645-3.933l-.156-.618.062-.148a6.094,6.094,0,0,1,11.241.042c1.839,4.428,4.179,8.864,4.756,13.546a18.029,18.029,0,0,1-.316,6.2,72.282,72.282,0,0,0,6.575-30.021,69.775,69.775,0,0,0-.433-7.783q-.359-3.178-.995-6.31a73.119,73.119,0,0,0-14.5-30.99,19.459,19.459,0,0,1-8.093-8.4,14.845,14.845,0,0,1-1.35-4.056c.394.052,1.486-5.949,1.188-6.317.549-.833,1.532-1.247,2.131-2.06,2.982-4.043,7.091-3.337,9.236,2.157,4.582,2.313,4.627,6.148,1.815,9.837-1.789,2.347-2.035,5.522-3.6,8.035.161.207.329.407.491.614A73.588,73.588,0,0,1,627.9,488.51a30.592,30.592,0,0,1,1.826-14.21c1.748-4.217,5.025-7.769,7.91-11.415a6.279,6.279,0,0,1,11.184,3.083q.009.081.017.161-.643.363-1.259.77a3.078,3.078,0,0,0,1.241,5.6l.063.01a30.634,30.634,0,0,1-.807,4.579c3.7,14.316-4.29,19.53-15.7,19.764-.252.129-.5.258-.749.381a75.116,75.116,0,0,1,4.043,19.028,71.236,71.236,0,0,1-.052,11.5l.019-.136a18.826,18.826,0,0,1,6.427-10.87c4.946-4.063,11.933-5.559,17.268-8.824a3.533,3.533,0,0,1,5.411,3.437l-.022.143a20.684,20.684,0,0,0-2.319,1.117q-.643.363-1.259.77a3.078,3.078,0,0,0,1.241,5.6l.063.01.129.019a30.653,30.653,0,0,1-5.639,8.829c-2.315,12.5-12.256,13.683-22.89,10.044h-.006A75.093,75.093,0,0,1,629,552.633h-18.02c-.065-.2-.123-.407-.181-.607a20.478,20.478,0,0,0,4.986-.3c-1.337-1.641-2.674-3.294-4.011-4.935a1.121,1.121,0,0,1-.084-.1c-.678-.84-1.363-1.673-2.041-2.512h0a29.989,29.989,0,0,1,.879-7.64h0Z" transform="translate(43 12.123)" fill="#f2f2f2"/>
    <path id="Path_152" data-name="Path 152" d="M409.166,552.687a1.186,1.186,0,0,0,1.19,1.19h253.29a1.19,1.19,0,0,0,0-2.38H410.356a1.187,1.187,0,0,0-1.19,1.19Z" transform="translate(43 12.123)" fill="#ccc"/>
  </g>
</svg>
